<?xml version="1.0" encoding="UTF-8"?>
<svg id="Layer_1" xmlns="http://www.w3.org/2000/svg" version="1.1" viewBox="0 0 1000 1000">
  <!-- Generator: Adobe Illustrator 29.8.4, SVG Export Plug-In . SVG Version: 2.1.1 Build 6)  -->
  <defs>
    <style>
      .st0 {
        fill: #af7c42;
      }

      .st1 {
        fill: #fff;
      }

      .st2 {
        fill: #cd9b61;
      }
    </style>
  </defs>
  <path d="M465.9,240.06c96.86-11.56,246.92,27.16,314.42,99.89,28.52,30.72,31.91,27.51,65.63,49.86,136.68,90.63,112.16,226.45-23.17,302-176.36,98.46-534.56,98.74-694.27-34.18-119.22-99.22-62.32-226.55,60.45-286.15,42.72-20.74,168.65-47.54,188.88-70.99,5.64-6.54,7.41-16.93,12.92-24.21,16.15-21.31,49.16-33.14,75.13-36.24ZM762.52,402.63c18.8-21.19,6.2-45.54-10.94-62.81-55.6-56.02-268.11-110.07-333.3-60.76-13.79,10.43-14.4,25.64-27.8,38.2-37.35,35.02-106.13,63.02-146.05,97.32-6.56,5.64-15.11,11.11-17,20.26-.11,13.02,40.7,25.15,52.75,29.89,59.78,23.55,148.4,61.34,208.09,76.5,29.14,7.4,38.63,6.24,64.83-7.73,51.01-27.21,101.57-80.2,150.16-105.59,16.85-8.81,48.5-13.15,59.27-25.28ZM293.56,354.45c-142.56,28.65-311.87,162.21-122.38,277.03,163.12,98.84,468.39,99.46,636.7,12.44,146.68-75.83,133.86-192.43-11.06-256.49,4.54,38.68,15.46,108.31-20.48,134.21-14.47,10.43-31.77,10.87-46.96,19.04-64.86,34.9-151.41,144.1-229.8,129.47-79.83-35.06-173.35-58.28-251.26-95.21-24.02-11.38-46.18-19.26-49.74-49.26-1.94-16.34-2.23-83.68,1.94-97.26,8.3-27.03,74.71-51.13,93.03-73.98ZM780.31,416.28c-10.47.53-14.73,9.98-24.7,14.49-12.6,5.7-25.82,5.12-38.61,10.89-42.79,19.33-100.1,77.97-147.4,104.22-59.15,32.82-83.38,14.04-142.05-5.77-70.08-23.67-138.28-54.36-208.23-78.45v63.94c0,16.86,62.73,38.76,78.43,45.32,56.35,23.54,130.27,54.36,187.57,72.3,36.57,11.44,41.97,11.44,76.03-6.58,52.99-28.03,110.98-92.79,159.82-116.55,13.19-6.42,31.35-6.68,42.53-15.21,5.42-4.14,16.6-23.86,16.6-28.78v-59.81ZM879.28,618.42c-2.4-2.44-40.31,25.89-46.71,29.56-171.42,98.41-484.35,99.56-657.28,4.12l-67.35-46.04c9.78,11.99,21.12,25.12,32.95,35.07,158.82,133.64,578.52,137.76,730.22-8.24,4.45-4.28,9.63-7.26,8.17-14.48Z"/>
  <path class="st2" d="M762.52,402.63c-10.76,12.13-42.41,16.48-59.27,25.28-48.6,25.39-99.15,78.38-150.16,105.59-26.2,13.97-35.68,15.13-64.83,7.73-59.69-15.15-148.31-52.94-208.09-76.5-12.05-4.75-52.86-16.87-52.75-29.89,1.89-9.15,10.44-14.62,17-20.26,39.92-34.3,108.7-62.3,146.05-97.32,13.4-12.56,14-27.77,27.8-38.2,65.19-49.31,277.7,4.74,333.3,60.76,17.14,17.27,29.74,41.62,10.94,62.81Z"/>
  <path class="st1" d="M293.56,354.45c-18.32,22.85-84.73,46.95-93.03,73.98-4.17,13.57-3.87,80.92-1.94,97.26,3.56,30,25.72,37.87,49.74,49.26,77.91,36.93,171.44,60.15,251.26,95.21,78.39,14.62,164.94-94.57,229.8-129.47,15.19-8.17,32.49-8.61,46.96-19.04,35.93-25.9,25.02-95.53,20.48-134.21,144.92,64.06,157.73,180.66,11.06,256.49-168.31,87.02-473.58,86.39-636.7-12.44-189.49-114.82-20.18-248.38,122.38-277.03Z"/>
  <path class="st0" d="M780.31,416.28v59.81c0,4.92-11.17,24.64-16.6,28.78-11.19,8.53-29.34,8.8-42.53,15.21-48.84,23.76-106.83,88.52-159.82,116.55-34.06,18.02-39.46,18.02-76.03,6.58-57.3-17.93-131.22-48.75-187.57-72.3-15.7-6.56-78.43-28.46-78.43-45.32v-63.94c69.95,24.09,138.15,54.78,208.23,78.45,58.67,19.82,82.9,38.6,142.05,5.77,47.3-26.25,104.61-84.89,147.4-104.22,12.79-5.78,26.01-5.2,38.61-10.89,9.97-4.51,14.23-13.96,24.7-14.49ZM732.87,449.36c-8.07,0-10.67,47.12,0,53.46,9.23,0,9.23-53.46,0-53.46ZM528.69,634.9v-57.75c-12.4,6.89-9.8,39.47-8.26,51.63.77,6.07,3.22,12.8,8.26,6.12Z"/>
  <path class="st1" d="M879.28,618.42c1.46,7.22-3.71,10.2-8.17,14.48-151.71,146-571.4,141.88-730.22,8.24-11.83-9.95-23.17-23.09-32.95-35.07l67.35,46.04c172.93,95.44,485.85,94.28,657.28-4.12,6.4-3.67,44.31-32,46.71-29.56Z"/>
  <path d="M732.87,449.36c9.23,0,9.23,53.46,0,53.46-10.67-6.33-8.07-53.46,0-53.46Z"/>
  <path d="M528.69,634.9c-5.04,6.68-7.49-.05-8.26-6.12-1.54-12.16-4.14-44.74,8.26-51.63v57.75Z"/>
</svg>