<?xml version="1.0" encoding="UTF-8"?>
<svg id="Layer_1" xmlns="http://www.w3.org/2000/svg" version="1.1" viewBox="0 0 1000 1000">
  <!-- Generator: Adobe Illustrator 29.8.4, SVG Export Plug-In . SVG Version: 2.1.1 Build 6)  -->
  <defs>
    <style>
      .st0 {
        fill: #301e11;
      }

      .st1 {
        fill: #fff;
      }
    </style>
  </defs>
  <path d="M722.82,369.94c153.92-37.64,187.73,125.83,83.71,219.12-35.25,31.61-110.53,59.44-133.07,83.51-18.88,20.16-22.22,70.96-44.55,93.27-49.9,49.84-259.46,49.51-307.52-1.86-42.7-45.64-82.54-242.71-90.19-308.51-4.21-36.21-11.82-108.62-5.45-142,1.72-8.98,17.1-24.33,24.37-29.77,77.35-57.97,347.11-51.68,433.19-9.61,49.49,24.19,39.64,45.38,39.5,95.86ZM392.02,268.07c-27.28,2.41-135.91,20.34-141.39,50.88-1.96,10.9,26.98,23.88,35.63,27.32,87.9,35.05,280.29,35.77,368.98,2.88,39.73-14.73,64.98-31.74,13.4-55.48-68.22-31.39-201.77-32.24-276.62-25.61ZM703.09,355.23c-141.37,58.58-315.94,56.88-457.73,0,13.65,115.67,25.37,241.33,71.44,349.37,19.13,44.86,30.84,56.6,80.04,67.63,62.3,13.97,195.87,16.24,228.46-49.38,52.61-105.95,60.02-251.95,77.8-367.61ZM678.54,640.68c75.91-38.77,178.35-91.96,162.08-194.13-10.36-65.04-117.43-88.51-122.72-17.55,97.59-48.98,128.45,52.23,61.45,118.11-36.14,35.53-98.86,36.85-100.81,93.57ZM698.21,566.83c40.86,1.31,132.87-99.43,78.75-125.5-60.82-29.29-76.65,89.62-78.75,125.5Z"/>
  <path class="st1" d="M703.09,355.23c-17.78,115.67-25.19,261.67-77.8,367.61-32.58,65.62-166.16,63.35-228.46,49.38-49.2-11.03-60.91-22.77-80.04-67.63-46.07-108.04-57.78-233.7-71.44-349.37,141.79,56.88,316.36,58.58,457.73,0ZM436.29,460.01c-46.87,2.96-109.9,9.64-145.82,41.2-10.75,31.61,32.89,180.37,52.29,211.87,28.72,46.62,140.22,48.57,189.28,39.57,69.74-12.8,77.9-35.67,98.53-98.36,9.87-30,37.8-131.21,25.79-156.37-16.17-33.87-183.29-40.24-220.07-37.91Z"/>
  <path class="st1" d="M392.02,268.07c74.84-6.62,208.4-5.77,276.62,25.61,51.58,23.73,26.33,40.74-13.4,55.48-88.69,32.88-281.08,32.17-368.98-2.88-8.65-3.45-37.59-16.42-35.63-27.32,5.49-30.54,114.11-48.47,141.39-50.88Z"/>
  <path class="st1" d="M678.54,640.68c1.95-56.72,64.66-58.04,100.81-93.57,67-65.87,36.14-167.08-61.45-118.11,5.29-70.96,112.37-47.5,122.72,17.55,16.27,102.17-86.17,155.36-162.08,194.13Z"/>
  <path class="st0" d="M436.29,460.01c36.78-2.32,203.89,4.04,220.07,37.91,12.01,25.15-15.92,126.37-25.79,156.37-20.63,62.69-28.79,85.56-98.53,98.36-49.06,9-160.56,7.05-189.28-39.57-19.4-31.5-63.03-180.26-52.29-211.87,35.92-31.56,98.95-38.24,145.82-41.2ZM416.62,479.72c-16.87,1.44-112.19,14.63-112.12,35.45,64.04,35.11,156.5,37.25,228.72,31.93,78.01-5.75,181.16-38.6,33.08-62.49-48.1-7.76-100.96-9.06-149.68-4.89ZM639.09,542.26c-77.41,23.83-167.44,30.87-247.97,19.09-7.85-1.15-81.6-21.42-81.86-16.59,1.98,9.13,3.06,24.23,7.66,31.72,9.39,15.28,92.46,28.07,113.09,29.66,66.08,5.1,136.32-1.68,199.36-21.98l9.73-41.9Z"/>
  <path class="st1" d="M416.62,479.72c48.72-4.17,101.58-2.87,149.68,4.89,148.08,23.89,44.93,56.74-33.08,62.49-72.22,5.32-164.68,3.18-228.72-31.93-.07-20.81,95.25-34,112.12-35.45Z"/>
  <path class="st1" d="M639.09,542.26l-9.73,41.9c-63.04,20.31-133.28,27.08-199.36,21.98-20.62-1.59-103.7-14.38-113.09-29.66-4.6-7.49-5.69-22.59-7.66-31.72.27-4.83,74.01,15.44,81.86,16.59,80.53,11.77,170.57,4.73,247.97-19.09Z"/>
</svg>