<?xml version="1.0" encoding="UTF-8"?>
<svg id="Layer_1" xmlns="http://www.w3.org/2000/svg" version="1.1" viewBox="0 0 1000 1000">
  <!-- Generator: Adobe Illustrator 29.8.4, SVG Export Plug-In . SVG Version: 2.1.1 Build 6)  -->
  <defs>
    <style>
      .st0 {
        fill: #fff;
      }

      .st1 {
        fill: #503721;
      }
    </style>
  </defs>
  <path d="M490.81,89.76c20.65-.51,88.04,3.78,97.67,23.73,3.31,6.85,3.81,70.71,1.95,80.37-2.58,13.36-16.56,12.67-14.83,26.94,4.47,36.77,54.19,75.73,74.37,107.57,59.63,94.08,39.15,286.97,35.25,397.52-2.93,82.99,23.01,152.78-81.49,174.25-66.9,13.75-171.79,16.04-235.9-9.14-22.56-8.86-41.44-22.07-48.39-46.48-6.15-114.66-14.83-234.12-9.59-349.62,2.49-54.81,7.14-107.07,33.98-155.77,16.33-29.63,71.64-81.2,76.61-104.88,5.84-27.85-9.2-26.36-11.65-44.2-1.52-11.06-1.22-68.5,2.37-76.48,8.59-19.13,60.92-23.35,79.66-23.82ZM561.61,117.69c-39.21-8.73-81.7-12.2-119.63,2.01.19,7.89,82.74,7.03,93.01,6.35,6.27-.42,24.5-.92,26.62-8.36ZM569.87,138.27c-46.67,14.48-97.07,9.16-144.32,0,.57,33.36-9.57,53.18,30.92,57.73,17.11,1.92,107.8,4.09,112.87-10.87l.54-46.86ZM553.35,212.48l-107.32,1.83c-5.89,57.75-56.44,88-83.09,135.68-38.81,69.42-23.8,123.32-32.49,198.51,5.65,85.69-5.86,187.95,4.79,271.97,4.89,38.58,27.85,48.9,62.14,57.49,55.61,13.93,125.19,14.68,181.71,5.8,36.04-5.66,77.6-13.42,84.69-55.56,3.82-22.71,4.43-68.2,5.31-93.69,3.02-87.35,10.39-277.81-17.69-353.95-24.45-66.3-87.5-98.62-98.05-168.08Z"/>
  <path class="st0" d="M553.35,212.48c10.56,69.45,73.6,101.77,98.05,168.08,28.08,76.14,20.7,266.6,17.69,353.95-.88,25.49-1.49,70.97-5.31,93.69-7.09,42.14-48.65,49.89-84.69,55.56-56.52,8.88-126.1,8.13-181.71-5.8-34.29-8.59-57.25-18.91-62.14-57.49-10.65-84.02.86-186.29-4.79-271.97,8.68-75.18-6.32-129.08,32.49-198.51,26.66-47.68,77.2-77.93,83.09-135.68l107.32-1.83ZM457.67,308.59c-52.74,5.69-70.65,22.32-90.64,70.23-28.7,68.76-18.39,246.53-15.8,326.65,1.28,39.67-3.85,88.8,5.04,126.95,7.18,30.8,81.39,38.14,108.48,40.02,34.33,2.38,149.27.67,171.28-26.63,16.44-20.38,16.46-141.67,16.32-173.35-.41-86.79,8.95-260.96-37.76-329.35-28.83-42.21-110.38-39.55-156.91-34.53Z"/>
  <path class="st0" d="M569.87,138.27l-.54,46.86c-5.07,14.96-95.76,12.8-112.87,10.87-40.48-4.54-30.35-24.37-30.92-57.73,47.25,9.16,97.66,14.48,144.32,0Z"/>
  <path class="st0" d="M561.61,117.69c-2.12,7.44-20.36,7.94-26.62,8.36-10.27.68-92.82,1.54-93.01-6.35,37.93-14.21,80.43-10.74,119.63-2.01Z"/>
  <path class="st1" d="M457.67,308.59c46.53-5.02,128.08-7.69,156.91,34.53,46.71,68.4,37.36,242.57,37.76,329.35.15,31.68.12,152.97-16.32,173.35-22.01,27.3-136.96,29.01-171.28,26.63-27.08-1.88-101.3-9.22-108.48-40.02-8.89-38.15-3.76-87.28-5.04-126.95-2.59-80.13-12.9-257.89,15.8-326.65,19.99-47.91,37.9-64.54,90.64-70.23ZM582.25,340.4c-39.06,6.28-77.67,10.32-117.47,8.16-13.45-.73-28.3-6.32-41.71-7.87-8.13-.94-5.92.74-5.78,7.88,44.53,13.65,112.87,19.82,156.71,1.9,6.55-2.68,10.13.53,8.26-10.07ZM602.89,703.37v-224.81l-202.1-2.04-2.37,227.13c66.05,16.53,137.81,16.84,204.47-.28Z"/>
  <path class="st0" d="M602.89,703.37c-66.66,17.12-138.42,16.81-204.47.28l2.37-227.13,202.1,2.04v224.81ZM507.05,514.43c-52.85,7.82-69.19,116.71,2.48,77.01,28.61-15.85,48.47-84.56-2.48-77.01ZM559.58,625h-119.62c-2.51,0-7.94,8.51-6.17,12.35,17.45,6.7,124.49,3.56,129.96-4.1l-4.17-8.25ZM549.27,670.37l-.04-6.13-6.15-6.25h-88.69v12.37h94.87Z"/>
  <path class="st0" d="M582.25,340.4c1.88,10.6-1.71,7.39-8.26,10.07-43.84,17.93-112.18,11.75-156.71-1.9-.14-7.14-2.35-8.81,5.78-7.88,13.41,1.55,28.26,7.14,41.71,7.87,39.8,2.16,78.41-1.88,117.47-8.16Z"/>
  <path class="st1" d="M507.05,514.43c50.96-7.54,31.09,61.17,2.48,77.01-71.67,39.69-55.33-69.19-2.48-77.01ZM508.02,530.17c-21.82,1.84-33.82,25.74-32.96,45.33,16.56-10.12,18.8-32.24,32.96-45.33ZM524.5,538.4c-8.65-1.95-13.95,10.76-18.13,16.86-5.39,7.84-12.83,19.19-14.82,28.48,6.84,7.17,38.55-34.27,32.96-45.33Z"/>
  <path class="st1" d="M559.58,625l4.17,8.25c-5.47,7.66-112.5,10.8-129.96,4.1-1.77-3.85,3.66-12.35,6.17-12.35h119.62Z"/>
  <polygon class="st1" points="549.27 670.37 454.4 670.37 454.4 658 543.08 658 549.23 664.25 549.27 670.37"/>
  <path class="st0" d="M524.5,538.4c5.59,11.06-26.11,52.5-32.96,45.33,1.99-9.29,9.43-20.63,14.82-28.48,4.19-6.09,9.49-18.81,18.13-16.86Z"/>
  <path class="st0" d="M508.02,530.17c-14.16,13.09-16.39,35.21-32.96,45.33-.87-19.59,11.14-43.49,32.96-45.33Z"/>
</svg>