<?xml version="1.0" encoding="UTF-8"?>
<svg id="Layer_1" xmlns="http://www.w3.org/2000/svg" version="1.1" viewBox="0 0 1000 1000">
  <!-- Generator: Adobe Illustrator 29.8.4, SVG Export Plug-In . SVG Version: 2.1.1 Build 6)  -->
  <defs>
    <style>
      .st0 {
        fill: #af885f;
      }
    </style>
  </defs>
  <path d="M289.05,688.11c-34.94-36.17-76.15-161.42-71.54-210.94,4.67-50.17,68.12-162.1,107.15-193.95,33.61-27.43,144.52-61.15,187.49-59.89,31.03.91,145.59,45.09,171.07,64.42,37.86,28.74,96.08,150.6,99.28,197.69,4.02,58.99-27.46,130.93-58.49,180.62-38.4,61.48-169.63,115.65-240.65,110.27-43.82-3.32-163.65-56.49-194.31-88.23ZM501.16,245.23c-54.43.76-156.52,37.64-188.93,83.3-45.21,63.69-86.5,130.34-65.67,210.25,16.57,63.57,38.79,131.67,100.11,163.88,122.82,64.52,181.16,69.74,304.07,1.51,58.09-32.24,111.97-145.74,111.18-210.52-.35-28.62-40.22-118.73-55.43-146.69-27.06-49.76-151.34-102.49-205.34-101.73Z"/>
  <path class="st0" d="M501.16,245.23c54-.76,178.28,51.98,205.34,101.73,15.21,27.97,55.08,118.07,55.43,146.69.79,64.78-53.09,178.28-111.18,210.52-122.91,68.22-181.25,63-304.07-1.51-61.32-32.21-83.54-100.31-100.11-163.88-20.83-79.91,20.45-146.56,65.67-210.25,32.41-45.66,134.5-82.54,188.93-83.3ZM414.22,306.82c-17,5.11-34.98,35.79-13.47,48.86,45.42,27.59,81.52-69.3,13.47-48.86ZM608.26,327.33c-42.03,8.72-2.66,73.13,34.12,54.98,22.04-23.84-4.62-61.1-34.12-54.98ZM512.85,364.09c-16.01,4.93-2.01,29.61,14.13,18.32,10.78-7.55,1.18-23.03-14.13-18.32ZM296.81,474.07c26.7,26.88,65.67-39.56,31.89-54.71-29.11-13.06-49.01,37.47-31.89,54.71ZM480.28,438.7c-22.65,3.46-29.82,36.26-11.17,50.78,52.59,40.94,64.28-58.89,11.17-50.78ZM596.97,475.06c27.63,2.11,28.65-39.45.59-24.07l-.59,24.07ZM690.7,479.83c-22.03,5.87-22.9,56.57,3.08,61.16,38.79-3.91,33.24-70.84-3.08-61.16ZM398.54,515.88c5.27-3.69,8.45-28.22-9.23-23.71-21.64,5.52-6.32,34.6,9.23,23.71ZM587.58,537.68c-22.05,4.71-45.64,43.14-16.64,52.1,52.23,16.15,62.11-61.81,16.64-52.1ZM325.7,583.3c-16.29,16.31,6.57,45.39,23.55,50.84,52.74,16.96,34.99-84.23-23.55-50.84ZM646.43,635.97l-22.74,8.18c-3.88,7.75-3.51,15.5,4.34,20.63,17.55.73,20.15-14.68,18.4-28.82ZM465.95,696.83c18.97,18.98,74.13-13.35,50.39-40.09-24.53-27.63-74.97,15.49-50.39,40.09Z"/>
  <path d="M325.7,583.3c58.54-33.39,76.29,67.8,23.55,50.84-16.97-5.46-39.84-34.53-23.55-50.84Z"/>
  <path d="M608.26,327.33c29.5-6.12,56.17,31.14,34.12,54.98-36.78,18.15-76.15-46.26-34.12-54.98Z"/>
  <path d="M480.28,438.7c53.11-8.11,41.42,91.72-11.17,50.78-18.65-14.52-11.48-47.32,11.17-50.78Z"/>
  <path d="M414.22,306.82c68.05-20.44,31.96,76.45-13.47,48.86-21.52-13.07-3.54-43.76,13.47-48.86Z"/>
  <path d="M465.95,696.83c-24.58-24.6,25.86-67.71,50.39-40.09,23.74,26.73-31.42,59.07-50.39,40.09Z"/>
  <path d="M587.58,537.68c45.47-9.7,35.59,68.25-16.64,52.1-29-8.96-5.41-47.4,16.64-52.1Z"/>
  <path d="M296.81,474.07c-17.13-17.24,2.77-67.77,31.89-54.71,33.78,15.16-5.18,81.6-31.89,54.71Z"/>
  <path d="M690.7,479.83c36.32-9.68,41.87,57.24,3.08,61.16-25.98-4.58-25.11-55.28-3.08-61.16Z"/>
  <path d="M646.43,635.97c1.76,14.13-.84,29.54-18.4,28.82-7.85-5.13-8.22-12.88-4.34-20.63l22.74-8.18Z"/>
  <path d="M398.54,515.88c-15.55,10.89-30.88-18.18-9.23-23.71,17.69-4.51,14.5,20.02,9.23,23.71Z"/>
  <path d="M596.97,475.06l.59-24.07c28.06-15.39,27.04,26.17-.59,24.07Z"/>
  <path d="M512.85,364.09c15.3-4.72,24.91,10.77,14.13,18.32-16.14,11.3-30.13-13.38-14.13-18.32Z"/>
</svg>