<?xml version="1.0" encoding="UTF-8"?>
<svg id="Layer_1" xmlns="http://www.w3.org/2000/svg" version="1.1" viewBox="0 0 1000 1000">
  <!-- Generator: Adobe Illustrator 29.8.4, SVG Export Plug-In . SVG Version: 2.1.1 Build 6)  -->
  <defs>
    <style>
      .st0 {
        fill: #cca07c;
      }
    </style>
  </defs>
  <path d="M464.68,617c-1.59.9-15.65,21.55-23.67,27.85-9.58,7.54-24.61,12.08-31.01,18.49-3.3,3.3-33,54.35-33.07,57.7-.18,8.3,4.77,17.56,4.5,28.86-1.62,66.69-58.51,73.43-105.29,39.41-12.63-9.18-62.58-58.94-68.92-71.33-16.34-31.95-10.48-56.54-16.57-86.55-5.55-27.36-18.45-32.3-15.07-70.54,4.64-52.43,36.82-69.23,47.15-101.31,5.91-18.36,3.64-40.36,12.17-62.08,28.66-72.92,177.02-154.86,253.88-138.46,13.07,2.79,27.27,16.55,34.71,17.08,11.77.84,44.88-10.09,61.81-10.81,26.11-1.11,63.53,2.19,84.62,18.84,35.43,27.99,29.81,18.01,70.2,32.92,20.45,7.55,60.23,29.51,72.05,47.57,5.84,8.91,6.91,19.6,12.74,28.51,17.61,26.93,56.56,50.21,50.58,91.9-8.6,60.01-83.35,20.31-112.76,21.65-11.37.52-65.49,5.22-73.14,7.25-8.15,2.16-17.83,13.6-27.86,17.52-15.49,6.06-38.65,4.38-50.73,11.15-6.91,3.87-14.39,18.15-23.84,25.66-14.34,11.37-45.79,29.59-62.83,36.16-15.67,6.05-54.86,9.83-59.67,12.56ZM249.33,434.57c79.55-22.13,165.91,31,203.82,99.35,11.49,20.71,14.52,40.26,24.87,60.54,56.17-14.95,118.11-35.52,117.92-103.99-.22-77.98-54.07-222.27-150.28-212.16-62.73,6.6-195.47,83.03-196.34,156.26ZM668.79,503.43c31.65-28.79,20.21-171.04-13.14-200.88-25.23-22.58-74.67-16.21-105.36-10.42-4.8,4.11-4.86,4.9-1.97,10.48,7.49,14.47,23.67,32.04,32.55,49.97,23.78,48.03,41.35,111.26,31.45,164.47,5.72,4.81,49.16-6.97,56.47-13.62ZM698.94,492.31c18.47-.81,39.7,5.01,53.68-10.21,4.95-19.99,46.94-79.74,45.43-94.79-2.6-25.86-77.14-57.17-101.13-60.03-1.18,21.38,8.66,42.07,10.4,63.85,2.64,33.05.1,69.3-8.38,101.18ZM777.29,488.19c100.07,30.42,91.99-22.84,35.05-78.33-7.09,9.89-41.03,71.61-35.05,78.33ZM433.51,622.91c29.39-26.23,20.02-48.65,2.2-79.8-29.91-52.32-111.96-109.18-174.25-90.17-30.85,9.41-80.7,112.36-61.62,146.65,66.76-55.63,157.7-24.56,208.87,36.53,4.69.89,20.59-9.45,24.79-13.2ZM384.15,637.91c-11.32-13.57-44.62-33.67-61.88-39.1-28.47-8.97-82.58-11.65-103.77,13.29-15.62,18.38-3.05,70.94,6.54,92.16,2.05,4.53,12.33,25.84,18.02,23.18,20.9-33.58,50.73-49.55,90.83-45.36,10.37,1.08,18.41,6.76,25.77,7.63,16.38,1.93,36.54-37.33,24.48-51.79ZM356.56,706.83c-28.27-6.64-63.04-8.6-85.19,13.81-29.75,30.1,41.24,72.94,67.98,65.97,6.4-1.67,17.21-9.76,17.21-15.84v-63.94Z"/>
  <path class="st0" d="M249.33,434.57c.87-73.23,133.61-149.67,196.34-156.26,96.2-10.12,150.06,134.18,150.28,212.16.19,68.47-61.75,89.05-117.92,103.99-10.35-20.27-13.38-39.83-24.87-60.54-37.92-68.35-124.28-121.48-203.82-99.35ZM488.53,541.82c-17.49-86.49-116.72-165.99-206.2-148.43.41,19.39,14.85,7.3,26.16,8.44,93.78,9.42,121.15,62.4,166.89,130.51,3.6,5.36,4.69,11.23,13.15,9.49Z"/>
  <path class="st0" d="M433.51,622.91c-4.2,3.75-20.11,14.09-24.79,13.2-51.17-61.08-142.1-92.16-208.87-36.53-19.08-34.29,30.77-137.23,61.62-146.65,62.29-19,144.34,37.86,174.25,90.17,17.81,31.15,27.19,53.57-2.2,79.8Z"/>
  <path class="st0" d="M668.79,503.43c-7.31,6.65-50.76,18.43-56.47,13.62,9.9-53.2-7.66-116.44-31.45-164.47-8.88-17.93-25.06-35.5-32.55-49.97-2.88-5.57-2.82-6.36,1.97-10.48,30.68-5.79,80.12-12.16,105.36,10.42,33.35,29.84,44.79,172.09,13.14,200.88Z"/>
  <path class="st0" d="M384.15,637.91c12.06,14.46-8.1,53.72-24.48,51.79-7.35-.87-15.4-6.54-25.77-7.63-40.1-4.19-69.93,11.78-90.83,45.36-5.7,2.67-15.98-18.65-18.02-23.18-9.59-21.22-22.16-73.78-6.54-92.16,21.19-24.94,75.3-22.27,103.77-13.29,17.26,5.44,50.56,25.53,61.88,39.1Z"/>
  <path class="st0" d="M698.94,492.31c8.48-31.88,11.02-68.13,8.38-101.18-1.74-21.78-11.58-42.47-10.4-63.85,23.99,2.86,98.53,34.17,101.13,60.03,1.51,15.05-40.48,74.8-45.43,94.79-13.98,15.22-35.21,9.4-53.68,10.21Z"/>
  <path class="st0" d="M356.56,706.83v63.94c0,6.07-10.81,14.17-17.21,15.84-26.73,6.97-97.73-35.86-67.98-65.97,22.15-22.41,56.92-20.45,85.19-13.81Z"/>
  <path class="st0" d="M777.29,488.19c-5.98-6.72,27.96-68.45,35.05-78.33,56.94,55.49,65.01,108.76-35.05,78.33Z"/>
  <path d="M488.53,541.82c-8.47,1.74-9.55-4.13-13.15-9.49-45.74-68.11-73.11-121.09-166.89-130.51-11.31-1.14-25.75,10.95-26.16-8.44,89.49-17.56,188.71,61.94,206.2,148.43Z"/>
</svg>