<?xml version="1.0" encoding="UTF-8"?>
<svg id="Layer_1" xmlns="http://www.w3.org/2000/svg" version="1.1" viewBox="0 0 1000 1000">
  <!-- Generator: Adobe Illustrator 29.8.4, SVG Export Plug-In . SVG Version: 2.1.1 Build 6)  -->
  <defs>
    <style>
      .st0 {
        fill: #fff;
      }

      .st1 {
        fill: #e2e2e2;
      }
    </style>
  </defs>
  <path d="M464.57,373.01c123.05-3.69,314.6,10.86,422,74.43,98.63,58.38,56.36,121.52-24.75,163.99-27.95,14.64-46.92,25.98-73.76,41.46-126.46,72.96-442.95,72.31-570.95,3.11-30.56-16.52-59.33-33.47-90.3-49.84-87.79-46.39-98.2-112.62-6.24-162.99,92.76-50.81,239.03-67.02,344-70.17ZM417.86,391.69c-81.64,4.29-286.54,33.13-335.71,103.38-30.79,44,20.32,79.7,55.42,97.22,169.38,84.57,544.98,84.84,715.89,4.55,104.95-49.3,90.61-108.94-8.43-151.47-122.49-52.6-295.04-60.62-427.17-53.68ZM761.04,646.16c-36.16,4.09-71.31,14.13-107.46,18.61-97.74,12.13-210.02,11.74-307.86-.36-38.37-4.75-75.87-15.19-114.09-19.84,10.33,5.36,21.65,10.18,32.67,14.07,123.06,43.44,360.31,43.96,481.96-3.94,4.16-1.64,14.05-3.84,14.78-8.54Z"/>
  <path class="st0" d="M417.86,391.69c132.13-6.94,304.68,1.08,427.17,53.68,99.04,42.53,113.38,102.17,8.43,151.47-170.91,80.29-546.51,80.02-715.89-4.55-35.09-17.52-86.21-53.22-55.42-97.22,49.16-70.25,254.07-99.1,335.71-103.38ZM794.2,497.76c-85.19-89.52-431.84-73-541.57-28.39-84.9,34.52-80.61,84.8,2.3,117.67,122.32,48.49,354.35,48.45,477.96,4.47,38.06-13.54,105.57-47.24,61.31-93.75Z"/>
  <path class="st0" d="M761.04,646.16c-.72,4.69-10.62,6.9-14.78,8.54-121.65,47.9-358.9,47.39-481.96,3.94-11.02-3.89-22.35-8.71-32.67-14.07,38.22,4.65,75.72,15.1,114.09,19.84,97.84,12.1,210.12,12.49,307.86.36,36.15-4.48,71.3-14.53,107.46-18.61Z"/>
  <path d="M794.2,497.76c44.26,46.51-23.24,80.21-61.31,93.75-123.61,43.97-355.63,44.02-477.96-4.47-82.91-32.87-87.2-83.15-2.3-117.67,109.73-44.61,456.38-61.13,541.57,28.39ZM464.57,444.63c-61.73,2.5-134.86,10.8-193.2,31.02-110.88,38.43-72.49,83.45,16.34,109.75,109.19,32.33,256.36,33.51,368.03,13.04,35.66-6.53,192.07-40.54,122.35-98.59-58.33-48.56-238.48-58.26-313.53-55.22Z"/>
  <path class="st1" d="M464.57,444.63c75.05-3.04,255.2,6.66,313.53,55.22,69.72,58.05-86.69,92.06-122.35,98.59-111.68,20.47-258.84,19.29-368.03-13.04-88.83-26.3-127.22-71.32-16.34-109.75,58.34-20.22,131.47-28.51,193.2-31.02Z"/>
</svg>