<?xml version="1.0" encoding="UTF-8"?>
<svg id="Layer_1" xmlns="http://www.w3.org/2000/svg" version="1.1" viewBox="0 0 1000 1000">
  <!-- Generator: Adobe Illustrator 29.8.4, SVG Export Plug-In . SVG Version: 2.1.1 Build 6)  -->
  <defs>
    <style>
      .st0 {
        fill: #fff;
      }

      .st1 {
        fill: #b69880;
      }

      .st2 {
        fill: #867260;
      }
    </style>
  </defs>
  <path d="M725.4,400.68c110.04-38.2,152.79,82.95,90.6,162.82-53.38,68.57-106.68,50.93-164.64,82.86-7.95,4.38-26.38,31.25-37.34,41.04-82.17,73.4-232.98,78.67-323.09,17.75-86.72-58.63-130.49-180.28-135-281.62-1.98-44.59-1.79-79.78,35.96-108.76,102.28-78.54,395.4-78.57,497.67,0,33.31,25.59,31.17,46.83,35.83,85.91ZM684.15,396.54c30.76-21.31,14.04-45-8.25-63.98-89.78-76.44-393.21-74.31-480.56,6.26-16.22,14.96-24.07,41.08-2.14,53.59,2.09-41.08,51.56-61.9,85.78-73.07,94.52-30.86,252.62-31.39,344.74,7.66,29.74,12.61,66.44,31.65,60.44,69.54ZM415.99,330.59c-47.36-.04-106.61,1.25-144.37,32.92,41.93-19.25,85.5-19.63,130.1-24.54,6.17-.68,12.72-.91,14.27-8.38ZM638.71,371.81l-19.11,28.29-96.35,37.65c38.1-2.07,120.1-15.08,115.45-65.94ZM704.73,413.08c-20.29,9.01-35.48,22.5-56.27,32.37-110.82,52.59-327.37,51.31-434.66-9.65-13.04-7.41-25.16-15.33-35.01-26.87-1.75,132.3,66.65,288.97,210.81,313.05,147.69,24.67,252.23-52.88,294.58-191.31,12.19-39.86,15.47-76.57,20.55-117.59ZM671.76,619.27c51.29-11.21,110.72-34.49,137.9-82.74,40.3-71.58-3.94-150.27-87.89-114.69l-.49,28.33c50.72-30.96,89.86,1.49,76.55,58.04-6.68,28.37-41.28,57.72-66.8,69.32-25.57,11.62-55.48,6.22-59.27,41.75ZM696.5,565.64c39.29-5.88,94.52-47.85,81.59-91.93-7.51-25.58-45.9-13.75-57.03,3.09-2.54,3.84-27.79,85.57-24.55,88.84Z"/>
  <path class="st0" d="M704.73,413.08c-5.08,41.02-8.36,77.73-20.55,117.59-42.35,138.43-146.89,215.98-294.58,191.31-144.17-24.08-212.56-180.75-210.81-313.05,9.85,11.54,21.96,19.46,35.01,26.87,107.29,60.96,323.85,62.24,434.66,9.65,20.79-9.87,35.98-23.35,56.27-32.37Z"/>
  <path class="st0" d="M684.15,396.54c6.01-37.89-30.69-56.93-60.44-69.54-92.11-39.05-250.22-38.53-344.74-7.66-34.22,11.18-83.69,32-85.78,73.07-21.94-12.51-14.08-38.63,2.14-53.59,87.36-80.58,390.78-82.71,480.56-6.26,22.28,18.97,39.01,42.67,8.25,63.98Z"/>
  <path class="st0" d="M671.76,619.27c3.78-35.54,33.7-30.13,59.27-41.75,25.52-11.6,60.12-40.95,66.8-69.32,13.31-56.54-25.83-88.99-76.55-58.04l.49-28.33c83.94-35.58,128.19,43.11,87.89,114.69-27.17,48.26-86.6,71.54-137.9,82.74Z"/>
  <path class="st2" d="M679.98,400.95c-14.77,25.83-101.45,40.16-156.72,51.16-124.85,24.85-285.77-19.51-330.06-59.69,0,0-12.58-108.79,306.8-93.05,0,0,225.98,21.12,179.98,101.58Z"/>
  <path class="st1" d="M617.86,359.2c4.65,50.86-84.81,62.48-127.86,60.88,0,0,74.78-23.38,96.35-37.65,7.17-4.75,31.51-23.23,31.51-23.23Z"/>
  <path class="st1" d="M415.99,330.59c-1.55,7.46-8.1,7.7-14.27,8.38-44.6,4.91-88.17,5.29-130.1,24.54,37.76-31.67,97.01-32.95,144.37-32.92Z"/>
</svg>