<?xml version="1.0" encoding="UTF-8"?>
<svg id="Layer_1" xmlns="http://www.w3.org/2000/svg" version="1.1" viewBox="0 0 1000 1000">
  <!-- Generator: Adobe Illustrator 29.8.4, SVG Export Plug-In . SVG Version: 2.1.1 Build 6)  -->
  <defs>
    <style>
      .st0 {
        fill: #f0c594;
      }

      .st1 {
        fill: #fff;
      }
    </style>
  </defs>
  <path d="M659.59,223.32c29.74,7.78,70.96,18.31,70.47,55.74-27.63,184.7-25.31,386.13-58.59,568.82-6.4,35.12-15.68,42.22-47.97,55.15-55.15,22.08-125.64,25.92-184.07,16.92-30.82-4.74-99.55-21.91-108.96-56.04-12-43.52-16.07-127.8-21.5-176.49-13.85-124.12-27.79-250.95-37.12-375.36-3.29-43.95-7.6-58.88,37.14-78.28,25.67-11.13,65.32-18.73,93.26-22.23,63.65-7.99,127.6-3.52,191.47-2.42,6.97-4.61,36.02-135.45,48.06-157.87,9.32-17.35,50.66-5.96,57.03,7.16,10.43,21.48-45.92,157.6-39.23,164.91ZM613.65,305.38l70.47-232.58-28.69-10.29-65.98,247.51c5.91-5.29,21.55-2.51,24.19-4.64ZM585.3,231.67c-79.86-5.48-184.93-11.08-261.01,17.41-18.34,6.87-44.39,15-20.88,31.4,40.23,28.05,206.17,39.59,255,29.48,6.19-1.28,6.49-1.38,9.73-6.77,2.61-4.34,19.74-68.91,17.15-71.52ZM634.82,301.75c25.14-8.36,54.95-10.28,74.15-30.92-13.67-16.09-35.75-27.2-57.27-26.43l-16.89,57.34ZM560.55,330.69c-89.36,5.44-185.1,4.27-268.08-33.04,11.97,118.71,20.25,238.13,32.98,356.79,6.37,59.36,11.28,131.2,21.68,188.69,5.76,31.84,23.83,37.68,52.52,46.48,62.56,19.19,153.64,21,214.45-4.24,14.03-5.82,32.74-13.39,36.34-29.65l58.59-558.04-81.75,25.47-9.04,38.39c-.05,4.29,60.9,2.69,62.39,45.36-18.99,131.22-24.04,264.73-41.77,396-6.3,46.66-7.34,55.62-55.01,68.73-53.09,14.6-109.64,14.21-162.88.78-25.52-6.44-55.87-15.12-57.35-45.77-8.67-118.25-27.62-235.74-38.16-353.71-1.39-15.57-8.34-68.33-4.62-78.43,12.71-34.5,101.18-31.4,130.9-47.19l98.2,7.65,10.6-24.26ZM605.9,326.54c-39.5-4.52-30.3,41.2-45.37,65.92,37.88,19.81,38.36-40.67,45.37-65.92ZM486.3,400.75l-27.41-40.55-59.2,34.4c28.1,10.86,57.27,12.65,86.6,6.14ZM548.18,367.77h-61.87l19.64,35.11c-1.68,21.93-116.49,17.09-122.45-.57l-.5-7.56,12.56-18.69c-10.21-.27-65.11,13.79-61.85,26.71,18.51,13.14,43.18,17.73,65.22,21.44,66.04,11.13,137.72,11.79,203.63-.01,20.44-3.66,44.88-8.03,61.12-21.44,3.09-13.34-37.77-23.72-47.15-26.5-12.8,2.69,5.19,31.12-33.14,32.95-34.66,1.66-47.23-5.34-35.21-41.45ZM663.63,421.4c-99.84,35.4-226.29,35.84-325.79,0,.27,11.61-.69,23.38,0,35.02,5.81,98.43,20.96,214.2,33.47,313.02,2.17,17.11,5.62,66.38,16.05,74.7,41.2,32.84,182.89,29.92,228.67-2.19l47.59-420.54Z"/>
  <path class="st0" d="M663.63,421.4l-47.59,420.54c-45.78,32.12-187.47,35.03-228.67,2.19-10.43-8.32-13.88-57.58-16.05-74.7-12.51-98.81-27.66-214.58-33.47-313.02-.69-11.64.27-23.41,0-35.02,99.49,35.84,225.94,35.4,325.79,0ZM415.04,467.38c-17.12,12.57-47.69,54.86-44.27,75.48,2.27,13.71,58.87,48.88,71.29,47,16.11-2.43,51.35-61.85,48.44-79.59-2.34-14.23-60.32-46.95-75.45-42.89ZM555.49,521.39c-11.58,1.34-44.02,10.88-50.61,19.64-7.67,10.2-21.49,67.29-16.51,78.24,5.2,11.42,52.7,41.07,66.06,41.64,12.13.52,49.33-12.29,57.45-21.13,13.85-15.07,26.39-72.3,10.34-88.25-13.47-13.39-47.89-32.32-66.73-30.14ZM388.36,649.29c-13.15,13.66,8.75,88.73,22.12,97.58,15.06,9.98,86.58-11.1,94.49-28.62,6.92-15.33-15.87-76.33-26.87-92.7-15.02-9.05-78.96,12.54-89.74,23.74ZM530.57,715.06c-22.24,4.76-38.03,73.66-29.87,90.02,5.51,11.06,64.89,21.99,76.41,18.91,21.22-5.67,35.42-71.7,26.8-89.16-5.3-10.75-61.2-22.37-73.33-19.77Z"/>
  <path class="st1" d="M560.55,330.69l-10.6,24.26-98.2-7.65c-29.73,15.79-118.19,12.69-130.9,47.19-3.72,10.1,3.23,62.86,4.62,78.43,10.54,117.97,29.49,235.46,38.16,353.71,1.48,30.65,31.83,39.34,57.35,45.77,53.24,13.43,109.79,13.82,162.88-.78,47.68-13.11,48.71-22.07,55.01-68.73,17.72-131.27,22.77-264.78,41.77-396-1.49-42.68-62.44-41.07-62.39-45.36l9.04-38.39,81.75-25.47-58.59,558.04c-3.61,16.27-22.32,23.83-36.34,29.65-60.81,25.24-151.89,23.43-214.45,4.24-28.69-8.8-46.76-14.64-52.52-46.48-10.4-57.49-15.31-129.33-21.68-188.69-12.73-118.65-21-238.08-32.98-356.79,82.97,37.31,178.71,38.48,268.08,33.04Z"/>
  <path class="st1" d="M585.3,231.67c2.59,2.61-14.54,67.18-17.15,71.52-3.24,5.39-3.54,5.49-9.73,6.77-48.83,10.11-214.78-1.43-255-29.48-23.51-16.39,2.54-24.53,20.88-31.4,76.08-28.49,181.14-22.89,261.01-17.41Z"/>
  <path class="st0" d="M548.18,367.77c-12.02,36.11.54,43.1,35.21,41.45,38.33-1.83,20.34-30.26,33.14-32.95,9.38,2.78,50.23,13.17,47.15,26.5-16.25,13.4-40.68,17.78-61.12,21.44-65.91,11.8-137.6,11.14-203.63.01-22.04-3.71-46.7-8.3-65.22-21.44-3.26-12.92,51.64-26.98,61.85-26.71l-12.56,18.69.5,7.56c5.95,17.67,120.77,22.51,122.45.57l-19.64-35.11h61.87Z"/>
  <path class="st1" d="M613.65,305.38c-2.64,2.14-18.28-.65-24.19,4.64l65.98-247.51,28.69,10.29-70.47,232.58Z"/>
  <path class="st1" d="M634.82,301.75l16.89-57.34c21.52-.77,43.6,10.33,57.27,26.43-19.2,20.64-49.01,22.55-74.15,30.92Z"/>
  <path class="st1" d="M486.3,400.75c-29.33,6.51-58.5,4.71-86.6-6.14l59.2-34.4,27.41,40.55Z"/>
  <path class="st1" d="M605.9,326.54c-7.01,25.25-7.49,85.73-45.37,65.92,15.06-24.73,5.87-70.44,45.37-65.92Z"/>
  <path d="M555.49,521.39c18.84-2.18,53.26,16.75,66.73,30.14,16.05,15.95,3.51,73.18-10.34,88.25-8.12,8.84-45.32,21.64-57.45,21.13-13.36-.57-60.86-30.21-66.06-41.64-4.99-10.95,8.83-68.05,16.51-78.24,6.59-8.76,39.03-18.3,50.61-19.64ZM614.16,565.72c-26.53-24.2-51-33.91-86.61-24.68-8.53,6.74,28.41,19.88,28.79,26.79-10.54,17.24-37.46-17.86-45.27-10.33l-10.21,53.84,51.42,32.78c-.66-15.9,3.08-33.39,14.46-45.27,14.96,7.79-7.03,40.01-2.04,45.27,41.09-4.05,48.63-28.41,49.45-65.97-.91-1.05-31.33,10.87-24.68-2.02l24.7-10.42Z"/>
  <path d="M388.36,649.29c10.78-11.19,74.72-32.79,89.74-23.74,11,16.38,33.79,77.37,26.87,92.7-7.91,17.51-79.43,38.6-94.49,28.62-13.36-8.86-35.27-83.93-22.12-97.58ZM469.37,636.21c-5.75-4.16-67.48,19.02-71.73,28.32l19.04,69.86c6.63,4.32,67.16-10.91,71.75-20.07,9.25-18.47-13.75-58.81-19.06-78.11Z"/>
  <path d="M415.04,467.38c15.13-4.06,73.12,28.67,75.45,42.89,2.91,17.74-32.33,77.16-48.44,79.59-12.42,1.88-69.02-33.29-71.29-47-3.42-20.62,27.15-62.91,44.27-75.48ZM444.39,573.41c4.78-14.59,37.68-43.79,33.31-58.55-2.05-6.93-48.73-33.89-58.61-31.06-7.26,2.09-36.64,47.78-35.32,54.61,7.34,9.65,51.11,40.49,60.62,34.99Z"/>
  <path d="M530.57,715.06c12.13-2.6,68.03,9.02,73.33,19.77,8.62,17.46-5.58,83.49-26.8,89.16-11.52,3.08-70.9-7.85-76.41-18.91-8.15-16.37,7.64-85.27,29.87-90.02ZM515.59,800.48c15.31,1.79,48.43,15.54,61.64,6.75,5.34-3.56,20-54.69,14.55-64.35l-63.65-11.52c-8.38,22.69-16.65,44.26-12.53,69.13Z"/>
  <path class="st1" d="M614.16,565.72l-24.7,10.42c-6.65,12.88,23.77.96,24.68,2.02-.81,37.56-8.35,61.92-49.45,65.97-4.99-5.26,17-37.48,2.04-45.27-11.38,11.88-15.12,29.37-14.46,45.27l-51.42-32.78,10.21-53.84c7.81-7.53,34.73,27.57,45.27,10.33-.38-6.91-37.32-20.05-28.79-26.79,35.61-9.23,60.08.48,86.61,24.68Z"/>
  <path class="st1" d="M469.37,636.21c5.31,19.31,28.3,59.64,19.06,78.11-4.59,9.16-65.12,24.38-71.75,20.07l-19.04-69.86c4.25-9.3,65.98-32.48,71.73-28.32Z"/>
  <path class="st1" d="M444.39,573.41c-9.52,5.5-53.28-25.34-60.62-34.99-1.32-6.84,28.06-52.53,35.32-54.61,9.88-2.84,56.56,24.13,58.61,31.06,4.37,14.76-28.53,43.97-33.31,58.55Z"/>
  <path class="st1" d="M515.59,800.48c-4.13-24.87,4.15-46.44,12.53-69.13l63.65,11.52c5.46,9.67-9.2,60.79-14.55,64.35-13.21,8.79-46.33-4.96-61.64-6.75Z"/>
</svg>