<?xml version="1.0" encoding="UTF-8"?>
<svg id="Layer_1" xmlns="http://www.w3.org/2000/svg" version="1.1" viewBox="0 0 1000 1000">
  <!-- Generator: Adobe Illustrator 29.8.4, SVG Export Plug-In . SVG Version: 2.1.1 Build 6)  -->
  <defs>
    <style>
      .st0 {
        fill: #fff;
      }

      .st1 {
        fill: #c0edb3;
      }
    </style>
  </defs>
  <path d="M724.51,409.02c55.69-24.06,113.67,6.88,119.53,68.1,8.13,85.06-55.59,135.09-128.7,159.95-16.07,5.46-50.94,9.65-61.94,15.38-3.47,1.81-29.86,34.01-38.13,41.3-35,30.85-73.6,49.79-120.24,57.13-238.72,37.57-339.61-156.27-339.78-364.54-.03-43.31,46.09-73.01,81.39-87.72,114.56-47.73,331.83-50.21,439.57,16.34,35.47,21.91,53.07,51.15,48.29,94.06ZM687.39,404.9c39.64-40.09-20.12-74.48-53.73-88.62-107.31-45.15-319.24-45.19-419.39,17.69-23.92,15.02-45.82,36.42-27.07,65.64,2.65,4.12-.28,7.34,9.28,5.25-14.26-38.21,32.52-63.9,61.95-76.2,99.97-41.8,269.03-40.92,368.52,2.58,33.09,14.47,64.85,31.87,60.44,73.66ZM661.21,420.01c28.44-29.36,1.58-54.11-25.32-68.83-90.48-49.53-312.78-52.28-399.53,4.91-85.88,56.62,41.16,95.07,87.85,104.64,74.39,15.24,281.27,16.8,337-40.72ZM703.83,421.42l-64.5,36.52c-140.85,49.4-332.08,53.99-457.3-36.52-6.98,35.99,2.76,72.7,12.4,107.22,35.96,128.69,120.01,210.66,259.82,206.21,168.84-5.38,243.44-163.82,249.58-313.43ZM670.87,627.63c74.64-13.86,161.93-62.85,152.59-150.57-3.47-32.55-26.61-55.14-59.82-56-31.28-.81-41.61,6.06-43.26,37.46,31.57-20.61,74.71-13.5,81.6,27.85,6.22,37.35-30.36,77.23-60.87,93.98-26.57,14.59-62.83,13.02-70.24,47.28ZM695.62,573.99c37.61-4.69,101.48-50.96,82.88-93.16-10.11-22.94-44.05-14.13-56.03,2.5-12.97,18.01-15.08,68.22-26.85,90.67Z"/>
  <path class="st0" d="M703.83,421.42c-6.13,149.6-80.74,308.05-249.58,313.43-139.81,4.45-223.86-77.52-259.82-206.21-9.65-34.52-19.38-71.23-12.4-107.22,125.22,90.5,316.45,85.92,457.3,36.52l64.5-36.52Z"/>
  <path class="st1" d="M661.21,420.01c-55.73,57.52-262.61,55.96-337,40.72-46.69-9.57-173.73-48.02-87.85-104.64,86.74-57.19,309.05-54.45,399.53-4.91,26.9,14.73,53.77,39.48,25.32,68.83ZM415.15,421.39c31.56-20.45,85.26-17,90.78-63.82.76-6.48,1.85-34.39-6.22-35.05-54.66,16.28-112.62,26.64-84.56,98.87ZM398.58,458.5c-1.06-28.94,6.56-51.44-13-75.65-7.85-9.72-51.67-39.89-61.25-33.82-43.38,63.23,6.3,69.87,48.28,92.17,10.17,5.4,14.45,16.81,25.97,17.3ZM419.23,450.27h68.06c16.23,0,55.24-15.43,68.19-26.68,11.63-10.11,29.58-35.23,14.34-47.47-3-.19-42.8,23.5-51.68,26.62-31.5,11.06-91.05,6.66-98.91,47.53Z"/>
  <path class="st0" d="M687.39,404.9c4.42-41.79-27.34-59.19-60.44-73.66-99.5-43.5-268.55-44.38-368.52-2.58-29.42,12.3-76.2,38-61.95,76.2-9.56,2.09-6.63-1.13-9.28-5.25-18.76-29.22,3.15-50.62,27.07-65.64,100.15-62.88,312.08-62.84,419.39-17.69,33.61,14.14,93.37,48.53,53.73,88.62Z"/>
  <path class="st0" d="M670.87,627.63c7.41-34.26,43.67-32.69,70.24-47.28,30.51-16.75,67.09-56.63,60.87-93.98-6.89-41.35-50.03-48.46-81.6-27.85,1.66-31.4,11.99-38.27,43.26-37.46,33.21.86,56.35,23.46,59.82,56,9.34,87.72-77.95,136.7-152.59,150.57Z"/>
  <path d="M419.23,450.27c7.86-40.87,67.4-36.47,98.91-47.53,8.88-3.12,48.68-26.81,51.68-26.62,15.24,12.23-2.71,37.36-14.34,47.47-12.95,11.26-51.96,26.68-68.19,26.68h-68.06ZM559.47,396.69c-21.17,3.81-36.49,16.9-57.63,22.77-18.34,5.09-46.46,1.02-57.87,18.4,41.1,2.95,93.12-2.06,115.49-41.17Z"/>
  <path d="M398.58,458.5c-11.52-.49-15.8-11.9-25.97-17.3-41.98-22.3-91.66-28.94-48.28-92.17,9.58-6.06,53.4,24.1,61.25,33.82,19.56,24.21,11.94,46.71,13,75.65ZM390.35,425.48c-4.44-7.45-3-16.85-6.51-24.39-9.44-20.29-66.3-58.1-63.57-15.05,1.29,20.39,35.22,40.14,53.58,43.56,5.1-4.42-41.16-38.46-30.96-49.44,11.08,12.05,22.04,24.98,33.39,36.74,4.27,4.42,5.99,10.45,14.06,8.58Z"/>
  <path d="M415.15,421.39c-28.06-72.23,29.9-82.58,84.56-98.87,8.07.66,6.99,28.57,6.22,35.05-5.52,46.82-59.22,43.37-90.78,63.82ZM497.58,338.92c-33.96,4.5-83.02,13.59-78.31,57.73,14.19-10.65,27.64-36.7,45.31-35.09l-28.85,35.05c31.51-3.21,64.26-22.34,61.85-57.69Z"/>
  <path class="st0" d="M559.47,396.69c-22.38,39.1-74.39,44.12-115.49,41.17,11.41-17.38,39.53-13.31,57.87-18.4,21.13-5.87,36.46-18.95,57.63-22.77Z"/>
  <path class="st0" d="M390.35,425.48c-8.08,1.87-9.8-4.15-14.06-8.58-11.35-11.76-22.31-24.69-33.39-36.74-10.2,10.97,36.05,45.02,30.96,49.44-18.36-3.41-52.28-23.16-53.58-43.56-2.73-43.06,54.12-5.25,63.57,15.05,3.51,7.54,2.07,16.94,6.51,24.39Z"/>
  <path class="st0" d="M497.58,338.92c2.41,35.35-30.34,54.48-61.85,57.69l28.85-35.05c-17.67-1.61-31.12,24.44-45.31,35.09-4.72-44.14,44.35-53.23,78.31-57.73Z"/>
</svg>