<?xml version="1.0" encoding="UTF-8"?>
<svg id="Layer_1" xmlns="http://www.w3.org/2000/svg" version="1.1" viewBox="0 0 1000 1000">
  <!-- Generator: Adobe Illustrator 29.8.4, SVG Export Plug-In . SVG Version: 2.1.1 Build 6)  -->
  <defs>
    <style>
      .st0 {
        fill: #eecfcf;
      }

      .st1 {
        fill: #fff;
      }

      .st2 {
        fill: #b3eeb1;
      }
    </style>
  </defs>
  <path d="M515.61,390.78c129.76-11.84,208.04,108.73,142.18,222.86l142.64,133.75c15.8,27.27-13.8,50.29-37.14,33.02l-139.23-129.17c-26.86,9.23-51.09,25.5-81.67,28.27-90.58,8.21-165.99-66.34-150.55-156.67-132.09,18.17-210.88-107.8-140.92-220.09-12.56-22.27-46.24-46.31-54.03-69.97-3.4-10.34-2.56-13.15,8.21-18.73,19.41-5.36,66.03,40.6,82.15,52.62,41.24-27.39,83.49-40.74,132.58-25.49,62.36,19.36,109.86,83.82,95.78,149.61ZM231.03,246.45c-4.15,4.72,24.15,31.4,28.83,35.06,6.56,5.14,4.84,9.26,12.35-.06l-41.19-35ZM494.31,398.42c19.3-117.54-108.08-186.75-199.27-110.61-100.01,83.51-34.96,238.65,96.85,212.35,25.29-44.69,50.3-85.36,102.42-101.74ZM527.07,412.61c-83.49,8.01-140.48,104.61-105.81,181.87,29.15,64.95,124.59,85.18,179.03,39.74,2.84-6.29-13.12-12.04-14.68-22.93-2.59-18.14,12.44-33.45,30.83-30.83,10.3,1.46,17.86,18.27,22.94,14.62,58.44-86.65-10.7-192.22-112.31-182.47ZM783.71,766.17l-10.15-20.74c-52.7-35.89-98.84-99.71-148.7-135.92-14.78-10.73-28.39-10.98-13.37,5.28,30.5,33.04,76.16,72.77,110.32,104.02,6.91,6.32,56.78,52.58,61.91,47.36Z"/>
  <path class="st0" d="M527.07,412.61c101.62-9.75,170.76,95.82,112.31,182.47-5.07,3.65-12.64-13.16-22.94-14.62-18.39-2.62-33.42,12.69-30.83,30.83,1.56,10.9,17.52,16.64,14.68,22.93-54.44,45.44-149.88,25.21-179.03-39.74-34.67-77.26,22.32-173.86,105.81-181.87Z"/>
  <path class="st2" d="M494.31,398.42c-52.13,16.38-77.13,57.05-102.42,101.74-131.8,26.3-196.86-128.84-96.85-212.35,91.19-76.14,218.57-6.93,199.27,110.61Z"/>
  <path class="st1" d="M783.71,766.17c-5.13,5.22-55-41.04-61.91-47.36-34.16-31.25-79.81-70.98-110.32-104.02-15.02-16.27-1.4-16.01,13.37-5.28,49.86,36.21,95.99,100.03,148.7,135.92l10.15,20.74Z"/>
  <path class="st1" d="M231.03,246.45l41.19,35c-7.51,9.32-5.79,5.21-12.35.06-4.68-3.67-32.98-30.34-28.83-35.06Z"/>
</svg>