<?xml version="1.0" encoding="UTF-8"?>
<svg id="Layer_1" xmlns="http://www.w3.org/2000/svg" version="1.1" viewBox="0 0 1000 1000">
  <!-- Generator: Adobe Illustrator 29.8.4, SVG Export Plug-In . SVG Version: 2.1.1 Build 6)  -->
  <defs>
    <style>
      .st0 {
        fill: #fff;
      }

      .st1 {
        fill: #503721;
      }
    </style>
  </defs>
  <path d="M737.63,202.28c42.31-4.14,74.57,19.62,74.57,63.96,0,62.91-67.48,99.96-117.16,122.43-20.64,9.34-50.03,9.45-60.45,30.22.42,8.39,114.84,17.34,98.1,73.33-6.41,21.45-48.23,20.54-36.34,52.47,184.09-23.92,171.13,286.51.48,280.95-7.9,33.01.89,57.29-30.6,78.7-71.69,48.74-288.03,49.37-358.98-1.48-23.64-16.94-25.48-43.93-27.46-71.54-7.07-98.87,5.17-205.51-.01-305.23-3.09-16.26-56.62-25.78-28.25-65.35,16.7-23.3,58.47-27.74,84.05-35.6,4.71-1.45,7.23,2.94,6.05-6.21l-111.66-251.57c.98-26.8,35.66-36.12,57.14-42.25,87.83-25.06,374.37-37.36,446.14,17.63,28.33,21.71,10.4,32.28,4.38,59.54ZM725.22,161.14c-31.82-14.82-66.76-23.64-101.62-28.37-92.01-12.47-211.76-13.46-302.74,5.46-11.93,2.48-70.05,15.99-69.9,29.02,10.33,10.02,26.64,13.26,40.28,17.39,99.1,30,288.75,30.83,388.67,3.28,6.76-1.86,53.96-14.55,45.3-26.78ZM399.35,466.28l-91.19-249.07-44.89-19.01c-1.55,1.55,10.64,29.36,12.93,34.46,27.7,61.72,70.51,166.82,105.87,220,4.24,6.38,7.72,14.94,17.28,13.61ZM576.77,466.28l14.52-8.12c34.02-79.02,88.55-165.07,118.3-244.69,1.92-5.14,4.4-9.4,3.24-15.28l-45.46,15.25-90.6,252.85ZM390.76,223.29c-23.01-1.55-46.93-11.12-69.73-6.57l94.79,250.73,28.93,7.07-53.99-251.22ZM650.97,214.7l-65.93,8.29-49.54,251.53c10.49.45,21.68,2.38,25.66-9.36l89.8-250.46ZM655.16,383.8c51.96-18.82,156.11-65.52,134.22-136.35-7.36-23.81-52.34-40.54-68.25-14.19,75.91-.24,64.43,58.32,16.2,94.58-18.45,13.87-66.82,29.42-76.2,39.29-5.12,5.39-7.24,8.9-5.98,16.67ZM481.87,227.06l-78.43-2.01,54.08,253.21,24.35.42v-251.62ZM558.18,227.06c-21.18,1.17-42.76-.85-63.94,0v251.62c9.93-.62,23.83,3.98,28.09-6.97,10.12-79.59,40.75-164.39,50.09-242.86,1.58-13.28-11.12-1.96-14.24-1.79ZM675.78,338.43c21.83-7.24,100.69-50.74,74.25-80.55-29.72-33.52-71.47,59.35-74.25,80.55ZM622.47,441.94c-2.25,15.51-8.03,29.66-22.17,37.61-42.01,23.61-202.83,28.89-234.03-11.07-5.82-7.46-8.47-24.68-14.85-26.58-17.43.8-88.34,19.9-88.33,38.85,2.12,11.79,15.23,16.16,24.98,20.56,89.76,40.53,289.74,39.58,382.65,7.42,111.1-38.45-42.29-72-48.25-66.78ZM675.72,528.19c-121.81,33.97-253.36,31.59-375.31,0,5.31,97.54-7.14,202.52-.19,299.2,3.84,53.45,12.19,62.5,62.94,77.3,70.34,20.51,217.94,24.04,282.46-12.71,40.99-23.35,25.99-65.12,25.8-101.68-.45-87.41,7.58-174.65,4.29-262.11ZM696.35,804.57c142.42,11.9,156.34-266.6,0-239.29l.04,24.78c126.15-27.09,115.92,202.22-.04,189.72v24.79ZM696.37,759.17c90.05,13.89,97.56-178.37,0-148.5v148.5Z"/>
  <path class="st0" d="M675.72,528.19c3.29,87.46-4.75,174.71-4.29,262.11.19,36.56,15.19,78.33-25.8,101.68-64.52,36.75-212.12,33.23-282.46,12.71-50.75-14.8-59.1-23.86-62.94-77.3-6.95-96.68,5.49-201.66.19-299.2,121.95,31.6,253.51,33.97,375.31,0ZM330.38,869.41c42.48,41.56,260.18,39.14,307.99,2.95,18.29-13.84,19.38-47.78,20.83-69.92,2.34-35.56,4.12-102.03.13-136.17-3.06-26.14-25.06-32.34-47.75-38.87-58.49-16.81-145.34-16.4-205.46-7.92-22.03,3.11-76.91,11.92-86.14,33.48-6.56,15.33-4.63,121.6-3.3,145.59.86,15.53,4.34,61.69,13.7,70.86Z"/>
  <path class="st0" d="M725.22,161.14c8.66,12.23-38.54,24.91-45.3,26.78-99.93,27.55-289.58,26.72-388.67-3.28-13.64-4.13-29.95-7.36-40.28-17.39-.15-13.03,57.97-26.54,69.9-29.02,90.98-18.92,210.73-17.92,302.74-5.46,34.87,4.72,69.8,13.55,101.62,28.37Z"/>
  <path class="st0" d="M622.47,441.94c5.96-5.22,159.35,28.33,48.25,66.78-92.92,32.16-292.9,33.11-382.65-7.42-9.75-4.4-22.86-8.77-24.98-20.56,0-18.95,70.9-38.05,88.33-38.85,6.37,1.91,9.02,19.12,14.85,26.58,31.19,39.96,192.02,34.68,234.03,11.07,14.15-7.95,19.93-22.1,22.17-37.61Z"/>
  <path class="st0" d="M558.18,227.06c3.12-.17,15.82-11.49,14.24,1.79-9.34,78.46-39.97,163.27-50.09,242.86-4.26,10.96-18.15,6.35-28.09,6.97v-251.62c21.17-.85,42.75,1.17,63.94,0Z"/>
  <polygon class="st0" points="481.87 227.06 481.87 478.68 457.53 478.26 403.44 225.05 481.87 227.06"/>
  <path class="st0" d="M390.76,223.29l53.99,251.22-28.93-7.07-94.79-250.73c22.8-4.54,46.72,5.03,69.73,6.57Z"/>
  <path class="st0" d="M650.97,214.7l-89.8,250.46c-3.98,11.74-15.17,9.81-25.66,9.36l49.54-251.53,65.93-8.29Z"/>
  <path class="st0" d="M696.37,759.17v-148.5c97.56-29.87,90.05,162.38,0,148.5Z"/>
  <path class="st0" d="M696.35,804.57v-24.79c115.96,12.5,126.19-216.81.04-189.72l-.04-24.78c156.34-27.31,142.42,251.19,0,239.29Z"/>
  <path class="st0" d="M576.77,466.28l90.6-252.85,45.46-15.25c1.16,5.88-1.32,10.13-3.24,15.28-29.75,79.62-84.28,165.67-118.3,244.69l-14.52,8.12Z"/>
  <path class="st0" d="M399.35,466.28c-9.56,1.33-13.04-7.23-17.28-13.61-35.36-53.18-78.17-158.29-105.87-220-2.29-5.11-14.48-32.91-12.93-34.46l44.89,19.01,91.19,249.07Z"/>
  <path class="st0" d="M655.16,383.8c-1.26-7.77.86-11.28,5.98-16.67,9.39-9.87,57.76-25.42,76.2-39.29,48.23-36.26,59.71-94.82-16.2-94.58,15.91-26.35,60.89-9.62,68.25,14.19,21.88,70.82-82.27,117.53-134.22,136.35Z"/>
  <path class="st0" d="M675.78,338.43c2.78-21.2,44.53-114.08,74.25-80.55,26.44,29.81-52.42,73.31-74.25,80.55Z"/>
  <path class="st1" d="M330.38,869.41c-9.37-9.16-12.84-55.33-13.7-70.86-1.33-23.99-3.26-130.26,3.3-145.59,9.23-21.56,64.11-30.38,86.14-33.48,60.12-8.48,146.97-8.89,205.46,7.92,22.7,6.53,44.7,12.73,47.75,38.87,3.99,34.14,2.21,100.61-.13,136.17-1.45,22.13-2.54,56.07-20.83,69.92-47.81,36.19-265.51,38.61-307.99-2.95ZM638.6,668.45c-72.08,17.07-141.87,25.57-216.03,15.97-28.73-3.72-56.19-13.6-85.07-15.95,8.78,14.94,36.11,20.43,52.69,23.58,65.61,12.47,178.79,14.14,239.39-14.28,5.77-2.7,11.27,2.5,9.02-9.32Z"/>
  <path class="st0" d="M638.6,668.45c2.26,11.82-3.25,6.62-9.02,9.32-60.6,28.42-173.78,26.75-239.39,14.28-16.58-3.15-43.91-8.64-52.69-23.58,28.88,2.35,56.35,12.23,85.07,15.95,74.15,9.6,143.94,1.1,216.03-15.97Z"/>
</svg>