<?xml version="1.0" encoding="UTF-8"?>
<svg id="Layer_1" xmlns="http://www.w3.org/2000/svg" version="1.1" viewBox="0 0 1000 1000">
  <!-- Generator: Adobe Illustrator 29.8.4, SVG Export Plug-In . SVG Version: 2.1.1 Build 6)  -->
  <defs>
    <style>
      .st0 {
        fill: #edd57c;
      }
    </style>
  </defs>
  <path d="M350.84,219.73c24.08-3.92,31.26,8.88,48.89,11.41,25.75,3.7,32.09,6.94,54.07,11.55,58.64,12.3,116.05,27,174.6,39.9,16.02,3.53,33.31,15.54,43.95,17.92,29.77,6.68,55.7,11.02,84.72,22.52,21.14,8.38,33.85,30.78,31.24,53.51-1.03,8.95-8.38,20.88-10.63,30.95-23.57,105.43-49.94,211.88-85.53,314.59-13.21,38.11-11.66,64.66-66.16,57.85-31.37-3.92-70.21-14.76-101.84-21.86-66.06-14.83-129.12-39.89-191.86-55.64-27.11-6.8-57.35-11.41-84.65-18.47-22.03-5.7-37.98-32.03-36.16-54.65,1.03-12.77,6.65-48.38,9.27-61.02,18.08-87.32,55.09-174.25,74.24-264.01,1.28-5.99,17.77-53.49,20.28-58.09,6.14-11.23,22.73-24.39,35.56-26.48ZM759.24,347.69c-9.55-9.57-34.81-6.71-45.61-10.07-7.73-2.41-10.62-12.65-18.16-14.84-17.18-5-32.07-6.98-52.64-13.36-64.96-20.14-132.37-31.25-197.35-46.02-19.36-4.4-37.22-8.28-57.65-12.47-14.92-3.06-18.76-16.96-38.99-8.36-20.83,8.86-17.32,29.4-22.77,47.43-13.25,43.79-29.1,86.8-42.47,130.78-18.06,59.41-34.21,126.78-43.32,187.67-2.34,15.62-15.07,20.6-3.43,40.99,11.38,19.93,29.54,11.95,46.09,15.75,19.44,4.46,63.36,26.91,84.26,31.24,77.33,16.02,156.63,41.94,233.3,51.21,7.82.95,18.56,9.87,30.2,11.26,41.85,5.01,31.19-24.69,40.73-49.3,37.36-96.34,63.47-205.23,84.91-306.95,3.02-14.33,16.96-40.89,2.9-54.97Z"/>
  <path class="st0" d="M759.24,347.69c14.06,14.08.12,40.63-2.9,54.97-21.44,101.72-47.56,210.62-84.91,306.95-9.54,24.6,1.12,54.3-40.73,49.3-11.64-1.39-22.38-10.32-30.2-11.26-76.66-9.27-155.97-35.2-233.3-51.21-20.9-4.33-64.82-26.78-84.26-31.24-16.56-3.8-34.71,4.18-46.09-15.75-11.64-20.39,1.09-25.38,3.43-40.99,9.11-60.89,25.27-128.27,43.32-187.67,13.37-43.98,29.21-86.99,42.47-130.78,5.46-18.03,1.94-38.56,22.77-47.43,20.23-8.6,24.07,5.29,38.99,8.36,20.43,4.2,38.29,8.07,57.65,12.47,64.99,14.77,132.39,25.87,197.35,46.02,20.57,6.38,35.46,8.36,52.64,13.36,7.54,2.19,10.43,12.43,18.16,14.84,10.8,3.36,36.06.5,45.61,10.07ZM390.75,319.61c3.05-3.24,7.65-4.55,10.6-7.98l-9.69-9.78c-25.59,5.97-24.42,42.7-.91,17.76ZM698.37,408.59c29.05-1.08-2-42.74-12.39-32.98l12.39,32.98ZM607.62,441.58l37.02-18.55c-7.29-16.53-46.61,8.29-37.02,18.55ZM518.97,433.36c-11.54,2.49-6.75,37.04,8.13,37.08,9.26-1.8.46-38.93-8.13-37.08ZM393.1,524.11c-12.66-3.14-40.79,5.78-37.12,22.6,3.66,16.77,26.03-16.11,34.33-10.15l2.79-12.45ZM298.24,585.98c-4.8,10.8,5.78,39.68,18.47,37.09,13.55-2.77-8.44-37.14-18.47-37.09ZM628.19,598.36c-4.25-4.29-30.02,15.73-35.99,19.54-5.93,3.79-8.78,9.71-5.22,13.41,5.03,5.23,48.11-16.51,41.21-32.96Z"/>
  <path d="M628.19,598.36c6.91,16.45-36.17,38.19-41.21,32.96-3.57-3.71-.72-9.63,5.22-13.41,5.97-3.81,31.74-23.83,35.99-19.54Z"/>
  <path d="M393.1,524.11l-2.79,12.45c-8.3-5.96-30.67,26.92-34.33,10.15-3.67-16.82,24.46-25.74,37.12-22.6Z"/>
  <path d="M298.24,585.98c10.03-.05,32.02,34.32,18.47,37.09-12.69,2.59-23.27-26.29-18.47-37.09Z"/>
  <path d="M607.62,441.58c-9.6-10.26,29.73-35.08,37.02-18.55l-37.02,18.55Z"/>
  <path d="M518.97,433.36c8.58-1.85,17.38,35.28,8.13,37.08-14.88-.04-19.67-34.59-8.13-37.08Z"/>
  <path d="M390.75,319.61c-23.51,24.94-24.68-11.79.91-17.76l9.69,9.78c-2.95,3.43-7.54,4.74-10.6,7.98Z"/>
  <path d="M698.37,408.59l-12.39-32.98c10.39-9.76,41.43,31.89,12.39,32.98Z"/>
</svg>