<?xml version="1.0" encoding="UTF-8"?>
<svg id="Layer_1" xmlns="http://www.w3.org/2000/svg" version="1.1" viewBox="0 0 1000 1000">
  <!-- Generator: Adobe Illustrator 29.8.4, SVG Export Plug-In . SVG Version: 2.1.1 Build 6)  -->
  <defs>
    <style>
      .st0 {
        fill: #afdbeb;
      }

      .st1 {
        fill: #fff;
      }
    </style>
  </defs>
  <path d="M719.72,184.43c11.32,12.43,10,34.5,9.47,50.27-3.82,114.93-24.19,254.74-37.1,371.23-6.37,57.48-10.47,130.27-20.96,185.28-4.87,25.52-21.28,37.2-43.94,46.81-67.16,28.48-200.33,29.98-264.59-5.66-33.28-18.46-32.33-35.44-37.09-70.16-22.1-161.02-47.96-362.62-54.08-523.39-.86-22.7-5.1-44.58,15.03-59.14,50.61-36.63,205.09-41.58,267.66-37.93,35.15,2.05,142.49,17.32,165.6,42.69ZM439.66,163.75c-21.46,1.47-147.31,16.26-147.58,42.1,7.21,9.21,17.35,13.3,27.74,17.56,76.28,31.31,300.71,35.04,372.51-4.97,6.14-3.42,11.88-6.88,16.22-12.59-13.26-16.86-37.53-23.67-57.64-28.91-62.86-16.39-146.32-17.63-211.26-13.19ZM708.59,232.66c-8.79,4.31-17.23,9.33-26.61,12.53-83.56,28.47-229.71,28.01-316.46,10.91-25.3-4.99-50.44-11.54-73.46-23.44l59.97,564.91c49.89,52.34,229.77,53.53,282.11,14.39,19.65-14.69,16.03-31.63,20.81-53.44l53.64-525.87Z"/>
  <path class="st1" d="M708.59,232.66l-53.64,525.87c-4.78,21.81-1.16,38.75-20.81,53.44-52.34,39.14-232.22,37.94-282.11-14.39l-59.97-564.91c23.02,11.89,48.16,18.45,73.46,23.44,86.75,17.1,232.9,17.56,316.46-10.91,9.39-3.2,17.83-8.22,26.61-12.53ZM472.66,295.75c-32.42,1.59-105.78,8.11-132.58,24.17-21.54,12.92-16.46,44.68-15.03,67.39,6.95,110.43,21.88,244.73,37.14,354.73,5.98,43.14,5.63,49.46,48.54,62.84,46.65,14.54,98.07,16.48,146.19,8.26,20.84-3.56,68.55-13.77,75.62-35.75,14.94-146.32,34.4-292.77,43.02-439.45-1.21-9.24-10.71-14.45-18.37-18.76-40.15-22.57-137.97-25.7-184.53-23.42Z"/>
  <path class="st1" d="M439.66,163.75c64.94-4.44,148.4-3.2,211.26,13.19,20.11,5.24,44.38,12.05,57.64,28.91-4.33,5.7-10.08,9.17-16.22,12.59-71.8,40.01-296.23,36.28-372.51,4.97-10.39-4.26-20.54-8.35-27.74-17.56.27-25.84,126.11-40.63,147.58-42.1Z"/>
  <path d="M472.66,295.75c46.56-2.28,144.38.85,184.53,23.42,7.66,4.31,17.16,9.52,18.37,18.76-8.62,146.68-28.08,293.13-43.02,439.45-7.08,21.98-54.79,32.19-75.62,35.75-48.11,8.22-99.53,6.28-146.19-8.26-42.9-13.37-42.55-19.7-48.54-62.84-15.26-110-30.19-244.29-37.14-354.73-1.43-22.7-6.51-54.47,15.03-67.39,26.79-16.06,100.16-22.58,132.58-24.17ZM547.74,311.07c-68.63,1.49-150.6-7-210.27,30.9,0,19.99,128.07,35.29,148.4,30.91-1.64-12.12-6.41-21.26,4.1-30.96l57.77-30.85ZM663.24,348.1c12.75-17.43-69.66-31.82-78.36-32.9l28.98,49.49,49.38-16.59ZM502.38,372.91h59.81c4.71,0,34.23-6.26,35.07-10.4-3.8-11.46-18.63-37.88-31.06-39.14-8.57-.87-55.23,18.29-62,24.7-9.42,8.93-1.81,13.6-1.83,24.84ZM617.86,377.06c13.55,36.87-3.84,48.57-34.31,62.57-70.96,32.62-56.8-.23-92.17-49.54-49.91-6.87-103.09-4.08-149.83-25.44-2.18,3.14,3.17,65.68,4.1,76.29,8.16,93.01,17.81,187.74,28.89,280.47,5.6,46.88-1.19,58.14,47.63,71.99,47.74,13.54,118.46,12.21,165.82-2.84,10.8-3.43,23.43-5.18,29.43-15.95l45.83-409.93-45.4,12.37ZM605.15,381.53l-94.49,9.92c22.58,43.98,23.7,62.94,75.77,34.58,21.28-11.59,26.77-20.09,18.72-44.5Z"/>
  <path class="st0" d="M617.86,377.06l45.4-12.37-45.83,409.93c-6,10.76-18.63,12.51-29.43,15.95-47.36,15.05-118.08,16.38-165.82,2.84-48.82-13.85-42.03-25.12-47.63-71.99-11.09-92.74-20.74-187.47-28.89-280.47-.93-10.61-6.29-73.16-4.1-76.29,46.74,21.36,99.92,18.57,149.83,25.44,35.37,49.31,21.2,82.16,92.17,49.54,30.47-14,47.86-25.7,34.31-62.57ZM443.68,398.4c-15.2,2-67.04,30.91-69.27,46.91-2.41,17.25,30.68,84.58,48.52,87.81,19.29,3.5,85.31-37.8,87.83-55.26,2.24-15.51-41-74.39-53.57-78.56-5.05-1.67-8.36-1.58-13.5-.91ZM616.66,518.44c-8.19-9.9-68.72-37.4-82.41-33.47-16.69,4.79-55.45,76.68-49.44,93.02,7.5,20.37,74.03,48.52,94.98,39.65,12.91-5.47,52.24-80.61,36.87-99.21Z"/>
  <path class="st1" d="M547.74,311.07l-57.77,30.85c-10.51,9.7-5.74,18.84-4.1,30.96-20.33,4.37-148.4-10.92-148.4-30.91,59.67-37.9,141.64-29.4,210.27-30.9Z"/>
  <path class="st1" d="M605.15,381.53c8.05,24.4,2.57,32.9-18.72,44.5-52.08,28.36-53.2,9.4-75.77-34.58l94.49-9.92Z"/>
  <path class="st1" d="M502.38,372.91c.02-11.24-7.59-15.91,1.83-24.84,6.77-6.41,53.42-25.57,62-24.7,12.43,1.26,27.26,27.68,31.06,39.14-.85,4.15-30.36,10.4-35.07,10.4h-59.81Z"/>
  <path class="st1" d="M663.24,348.1l-49.38,16.59-28.98-49.49c8.7,1.08,91.1,15.48,78.36,32.9Z"/>
  <path d="M616.66,518.44c15.37,18.59-23.96,93.74-36.87,99.21-20.95,8.87-87.48-19.28-94.98-39.65-6.02-16.35,32.75-88.23,49.44-93.02,13.69-3.93,74.22,23.56,82.41,33.47ZM532.47,501.91c-6.06,5.32-35.34,63.84-33.72,70.24,7.52,11.89,61.17,38.32,71.05,35.46,9.75-16.3,41.81-56.66,37.74-74.36-3.12-13.59-64.36-40.75-75.08-31.35Z"/>
  <path d="M443.68,398.4c5.14-.68,8.45-.77,13.5.91,12.58,4.17,55.81,63.06,53.57,78.56-2.52,17.46-68.54,58.75-87.83,55.26-17.84-3.23-50.93-70.57-48.52-87.81,2.23-16,54.08-44.91,69.27-46.91ZM387.19,443.46c-2.36,3.33,27.92,70.67,35.44,73.2,16.07,5.42,72.23-28.14,75.14-39.36,2.56-9.87-38.07-64.57-47.49-66.43-14.57-2.87-48.34,27.06-63.08,32.59Z"/>
  <path class="st1" d="M532.47,501.91c10.72-9.4,71.95,17.75,75.08,31.35,4.07,17.7-27.99,58.06-37.74,74.36-9.88,2.85-63.53-23.57-71.05-35.46-1.62-6.41,27.65-64.93,33.72-70.24Z"/>
  <path class="st1" d="M387.19,443.46c14.74-5.53,48.52-35.46,63.08-32.59,9.42,1.86,50.05,56.56,47.49,66.43-2.91,11.22-59.07,44.79-75.14,39.36-7.52-2.54-37.79-69.87-35.44-73.2ZM419.81,467.81c-17.87-15.06,2.64,47.29,16.79,43.73,6.22-1.69,20.35-16.32,20.32-21.1-.07-9.35-18.11-1.06-24.48-3.89-9-4-11.28-17.61-12.62-18.74Z"/>
  <path d="M419.81,467.81c1.34,1.13,3.62,14.74,12.62,18.74,6.37,2.83,24.42-5.46,24.48,3.89.03,4.78-14.1,19.41-20.32,21.1-14.14,3.56-34.66-58.79-16.79-43.73Z"/>
</svg>